<svg aria-hidden="true" style="position:absolute;width:0;height:0" xmlns="http://www.w3.org/2000/svg" overflow="hidden"><defs><symbol id="instagram-logo" viewBox="0 0 32 32"><path d="M4.107 0h23.785c2.259 0 4.107 1.672 4.107 4.107v23.786c0 2.435-1.848 4.107-4.107 4.107H4.107C1.847 32 0 30.328 0 27.893V4.107C0 1.672 1.848 0 4.107 0zm19.204 3.555c-.792 0-1.44.648-1.44 1.441v3.448c0 .792.648 1.441 1.44 1.441h3.617c.792 0 1.441-.648 1.441-1.441V4.996c0-.793-.648-1.441-1.441-1.441h-3.617zm5.072 9.978h-2.816c.266.87.411 1.792.411 2.745 0 5.323-4.454 9.637-9.947 9.637S6.085 21.6 6.085 16.278c0-.954.144-1.875.411-2.745H3.557V27.05c0 .7.572 1.272 1.272 1.272h22.284c.7 0 1.272-.572 1.272-1.272V13.533h-.001zM16.03 9.703c-3.549 0-6.427 2.788-6.427 6.227s2.878 6.227 6.427 6.227c3.549 0 6.427-2.788 6.427-6.227s-2.878-6.227-6.427-6.227z"/></symbol><symbol id="computer"><path d="M30 25h-9.5v2.499l2 2.001v.5h-13v-.5l2-2.001V25H2a1.5 1.5 0 01-1.5-1.501V3.5A1.5 1.5 0 012 2h28a1.5 1.5 0 011.5 1.5v19.999A1.5 1.5 0 0130 25zm-.5-21h-27v17h27V4zM13 11c.414 0 .789.168 1.061.439l.939.939 2.939-2.939a1.5 1.5 0 112.122 2.122l-4 4a1.499 1.499 0 01-2.122 0l-2-2.001A1.5 1.5 0 0113 11z"/></symbol><symbol id="pinterest-logo" viewBox="0 0 32 32"><path d="M28.3 8.898c-.874-6.324-7.176-9.544-13.9-8.79C9.084.704 3.784 5.002 3.564 11.148c-.134 3.752.93 6.566 4.5 7.358 1.546-2.736-.498-3.334-.818-5.316C5.936 5.09 16.59-.442 22.17 5.218c3.864 3.92 1.318 15.972-4.906 14.718-5.962-1.196 2.92-10.79-1.838-12.672-3.868-1.532-5.922 4.68-4.088 7.768-1.076 5.31-3.392 10.31-2.454 16.968 3.04-2.208 4.066-6.43 4.906-10.836 1.528.93 2.346 1.892 4.294 2.042 7.184.558 11.202-7.172 10.216-14.308z"/></symbol><symbol id="searcher" viewBox="0 0 32 32"><path d="M31.217 27.435l-6.952-6.952c-.037-.037-.08-.063-.119-.097a13.09 13.09 0 002.166-7.23C26.312 5.89 20.422 0 13.156 0S0 5.89 0 13.156c0 7.266 5.89 13.156 13.156 13.156a13.09 13.09 0 007.23-2.166c.034.038.06.082.097.119l6.952 6.952a2.675 2.675 0 003.782-3.782zm-18.061-5.684a8.595 8.595 0 110-17.19 8.595 8.595 0 110 17.19z"/></symbol><symbol id="shopping-cart" viewBox="0 0 32 32"><path d="M31.815 6.686a1.022 1.022 0 00-.798-.438l-19.85-.856a1.026 1.026 0 10-.088 2.052l18.506.798-3.639 11.353H9.753L6.828 3.666a1.026 1.026 0 00-.635-.77L1.402 1.014a1.027 1.027 0 00-.751 1.911l4.26 1.674 2.977 16.208c.09.487.514.841 1.01.841h.494L8.264 24.78a.855.855 0 00.805 1.146h.791a3.062 3.062 0 00-.791 2.053c0 1.698 1.382 3.08 3.08 3.08s3.08-1.382 3.08-3.08a3.06 3.06 0 00-.791-2.053h6.716a3.062 3.062 0 00-.791 2.053c0 1.698 1.382 3.08 3.08 3.08s3.08-1.382 3.08-3.08a3.06 3.06 0 00-.791-2.053h.962a.856.856 0 100-1.712H10.286l.924-2.567h15.484c.447 0 .842-.288.978-.713L31.95 7.586a1.024 1.024 0 00-.135-.9zM12.15 29.348c-.755 0-1.369-.614-1.369-1.369s.614-1.369 1.369-1.369 1.369.614 1.369 1.369-.614 1.369-1.369 1.369zm11.294 0c-.755 0-1.369-.614-1.369-1.369s.614-1.369 1.369-1.369 1.369.614 1.369 1.369-.614 1.369-1.369 1.369z"/></symbol><symbol id="twitter-logo" viewBox="0 0 32 32"><path d="M32 6.079a13.112 13.112 0 01-3.769 1.034 6.588 6.588 0 002.885-3.629 13.23 13.23 0 01-4.171 1.594 6.545 6.545 0 00-4.791-2.074 6.565 6.565 0 00-6.395 8.059A18.633 18.633 0 012.23 4.204a6.515 6.515 0 00-.888 3.299 6.562 6.562 0 002.919 5.463 6.56 6.56 0 01-2.973-.824v.082a6.572 6.572 0 005.265 6.437 6.65 6.65 0 01-1.73.23c-.424 0-.834-.042-1.236-.122a6.567 6.567 0 006.131 4.559 13.169 13.169 0 01-8.152 2.805c-.53 0-1.052-.032-1.566-.09a18.552 18.552 0 0010.062 2.953c12.076 0 18.677-10.002 18.677-18.677l-.022-.85A13.117 13.117 0 0032 6.078z"/></symbol><symbol id="alarm"><path d="M30.74 10.003a15.723 15.723 0 00-8.243-8.243c1-.787 2.258-1.26 3.629-1.26A5.874 5.874 0 0132 6.374a5.846 5.846 0 01-1.26 3.629zM30.5 16.5c0 3.852-1.512 7.343-3.963 9.94l2.029 2.028a1.483 1.483 0 11-2.098 2.097l-2.178-2.178A14.426 14.426 0 0116 31c-3.079 0-5.928-.966-8.276-2.603L5.561 30.56a1.5 1.5 0 01-2.122-2.121l2.012-2.012C3.008 23.832 1.5 20.345 1.5 16.5 1.5 8.492 7.992 2 16 2s14.5 6.492 14.5 14.5zM16 5C9.649 5 4.5 10.148 4.5 16.5 4.5 22.851 9.649 28 16 28s11.5-5.149 11.5-11.5C27.5 10.148 22.351 5 16 5zm6 13h-6a1.5 1.5 0 01-1.5-1.5v-8a1.5 1.5 0 013 0v6.499H22A1.5 1.5 0 0122 18zM1.287 10.205A5.964 5.964 0 010 6.5a6 6 0 016-6c1.4 0 2.685.483 3.706 1.287a16.057 16.057 0 00-8.419 8.418z"/></symbol><symbol id="line-graph"><path d="M30.5 32h-29A1.5 1.5 0 010 30.5V1.499A1.5 1.5 0 011.5 0h29A1.5 1.5 0 0132 1.499V30.5a1.5 1.5 0 01-1.5 1.5zM29 3H3v26h26V3zM5.215 16.239v-.002l4-2.498a1.497 1.497 0 011.625.035l.006-.008 6.631 4.42 7.638-5.391a1.5 1.5 0 111.763 2.426h.001l-8.501 6c-.246.179-.55.284-.878.284-.321 0-.618-.101-.861-.272l-6.657-4.438-3.135 1.96a1.5 1.5 0 11-1.632-2.516z"/></symbol><symbol id="facebook-letter-logo" viewBox="0 0 32 32"><path d="M11.761 6.197v4.406H8.533v5.387h3.228v16.009h6.631V15.99h4.449s.417-2.583.619-5.408h-5.043V6.898c0-.551.723-1.291 1.437-1.291h3.613V-.002h-4.912c-6.958 0-6.794 5.392-6.794 6.197z"/></symbol><symbol id="book"><path d="M31.065 25.889l-14.471 5.988a1.489 1.489 0 01-1.188 0L.935 25.889A1.5 1.5 0 010 24.5v-23A1.5 1.5 0 012.073.114h.001l.002.001.013.005L16 5.876 29.911.12l.013-.005.003-.001A1.5 1.5 0 0132 1.5v23a1.5 1.5 0 01-.935 1.389zM14.5 8.503L3 3.744v19.753l11.5 4.759V8.503zM29 3.744L17.5 8.503v19.753L29 23.497V3.744zm-9.121 6.89l5.5-2.5a1.5 1.5 0 011.242 2.731l-5.5 2.5a1.5 1.5 0 01-1.242-2.731zm0 5.5l5.5-2.5a1.5 1.5 0 111.242 2.731l-5.5 2.5a1.5 1.5 0 01-1.242-2.731zm0 5.5l5.5-2.5a1.5 1.5 0 011.242 2.731l-5.5 2.5a1.5 1.5 0 01-1.242-2.731zM6 8c.221 0 .431.048.621.134l5.5 2.5a1.501 1.501 0 01-1.242 2.731l-5.5-2.5A1.5 1.5 0 016 8zm0 5.5c.221 0 .431.048.621.134l5.5 2.5a1.501 1.501 0 01-1.242 2.731l-5.5-2.5A1.5 1.5 0 016 13.5zM6 19c.221 0 .431.048.621.134l5.5 2.5a1.501 1.501 0 01-1.242 2.731l-5.5-2.5A1.5 1.5 0 016 19z"/></symbol><symbol id="home"><path d="M32 17a1.5 1.5 0 01-1.5 1.499 1.49 1.49 0 01-1.02-.405l-.003.004L16 4.622 2.553 18.068a1.5 1.5 0 11-2.092-2.149L14.919 1.46C15.192 1.177 15.575 1 16 1h.001c.026 0 .052 0 .079.002l.012.001.068.005.004.001c.367.04.694.212.933.468l.001-.001L23 7.378V6a1.5 1.5 0 113 0v4.378l5.598 5.598-.004.004c.25.268.406.625.406 1.02zm-3 2.5V30a1.5 1.5 0 01-1.5 1.5h-3v-12h-6v12h-14A1.5 1.5 0 013 30V19.5l13-13 13 13zm-15.5 0h-6v6h6v-6z"/></symbol><symbol id="image"><path d="M30.5 32h-29A1.5 1.5 0 010 30.5v-29A1.5 1.5 0 011.5 0h29A1.5 1.5 0 0132 1.5v29a1.5 1.5 0 01-1.5 1.5zM29 3H3v26h26V3zM6.5 4.5H12a1.5 1.5 0 110 3H7.5V12a1.5 1.5 0 01-3 0V4.5h2zM4.5 20a1.5 1.5 0 113 0v4.499l4.5.001a1.5 1.5 0 110 3H4.5V20zM20 4.5h7.5V12a1.5 1.5 0 01-3 0V7.5H20a1.5 1.5 0 010-3zm0 20v-.001h4.5V20a1.5 1.5 0 113 0v7.5H20a1.5 1.5 0 010-3z"/></symbol><symbol id="facebook"><path d="M22.879.245v5.072s-3.738-.373-4.674 1.06c-.512.783-.208 3.077-.254 4.724h4.959c-.418 1.925-.719 3.23-1.028 4.896h-3.958v15.759h-6.87V16.059H8.131v-4.958h2.891c.148-3.626.203-7.217 2.005-9.046C15.05-.002 16.981.246 22.879.246z"/></symbol><symbol id="twitter"><path d="M21.554 3.201c2.503-.044 3.836.868 5.109 2.027 1.081-.092 2.485-.695 3.312-1.116l.804-.439c-.473 1.276-1.113 2.276-2.097 3.035-.219.167-.436.395-.71.502v.016c1.403-.014 2.56-.647 3.659-.991v.016c-.577.917-1.359 1.849-2.192 2.516l-1.009.801c.018 1.486-.022 2.903-.299 4.151-1.615 7.255-5.893 12.181-12.663 14.292-2.432.757-6.361 1.068-9.147.377-1.381-.342-2.629-.73-3.799-1.242a14.921 14.921 0 01-1.83-.944c-.19-.114-.378-.23-.567-.345.628.018 1.364.192 2.065.078.636-.102 1.259-.075 1.846-.203 1.462-.321 2.761-.746 3.878-1.401.543-.318 1.366-.689 1.751-1.147-.726.012-1.385-.156-1.924-.346-2.091-.738-3.308-2.096-4.101-4.135.634.07 2.459.235 2.886-.126-.798-.044-1.564-.506-2.113-.849-1.682-1.052-3.054-2.817-3.044-5.534l.662.314c.423.178.853.273 1.356.378.213.044.639.169.884.078h-.032c-.325-.378-.855-.63-1.183-1.038-1.079-1.34-2.09-3.404-1.451-5.863.162-.624.42-1.174.694-1.682l.032.015c.126.263.406.457.583.677.551.683 1.231 1.297 1.924 1.839 2.361 1.846 4.486 2.981 7.9 3.82.866.214 1.867.377 2.902.378-.29-.846-.197-2.215.031-3.034.576-2.06 1.825-3.543 3.659-4.34.438-.19.924-.329 1.435-.441l.789-.094z"/></symbol><symbol id="pinterest"><path d="M14.217 20.743c-.257 1.025-.517 2.1-.785 3.151-.265 1.036-.498 2.087-.884 3.04-.639 1.577-1.45 3.1-2.514 4.334-.708.821-.558.494-.77.449-.162-.034-.176-.193-.208-.425-.174-1.253-.055-2.702.009-4.11.074-1.605.411-2.939.725-4.272.596-2.54 1.164-5.03 1.766-7.586.039-.17.148-.45.111-.548-.273-.71-.45-1.348-.528-2.094a6.66 6.66 0 01.171-2.391c.341-1.302 1.124-2.455 2.331-2.878.768-.266 1.618-.145 2.135.162.532.319.897.821 1.067 1.534.182.757.048 1.663-.098 2.327-.329 1.5-.761 2.626-1.153 4.074-.194.718-.415 1.455-.233 2.23a2.598 2.598 0 001.042 1.569c.524.382 1.145.59 2 .56 1.511-.053 2.561-1.019 3.263-1.93 1.124-1.458 1.803-3.426 2.062-5.767.082-.756.144-1.623.086-2.479-.108-1.58-.602-2.852-1.387-3.836-.746-.939-1.804-1.685-3.092-2.106-1.276-.416-3.042-.555-4.612-.287-2.853.489-4.864 2.11-6.049 4.348-.62 1.172-1.03 2.519-1.03 4.197 0 1.294.319 2.295.834 3.077.164.247.404.452.564.735.228.401-.034.998-.146 1.433-.135.523-.15 1.246-.761 1.258-.254.005-.571-.18-.785-.299-1.606-.887-2.581-2.502-2.981-4.596-.244-1.273-.242-2.756 0-3.985A11.36 11.36 0 015.52 6.455c1.002-1.85 2.47-3.329 4.257-4.385C11.151 1.258 12.7.688 14.586.413c.625-.091 1.273-.129 1.975-.162a11.87 11.87 0 015.324.997 10.884 10.884 0 013.668 2.641c1.031 1.126 1.782 2.436 2.257 4.073.249.852.49 1.762.49 2.815 0 1.056-.223 1.985-.379 2.914-.583 3.481-2.239 6.327-4.724 7.948a8.206 8.206 0 01-2.159.996c-.821.239-1.758.418-2.761.348-.974-.066-1.771-.331-2.441-.71-.665-.375-1.223-.836-1.62-1.531z"/></symbol><symbol id="insta"><path d="M27.938 31.754H4.307a3.939 3.939 0 01-3.938-3.94V4.184A3.94 3.94 0 014.307.244h23.631a3.939 3.939 0 013.938 3.94v23.63a3.94 3.94 0 01-3.938 3.94zM16.123 9.894a6.1 6.1 0 00-5.536 3.545h-.006c-.01.022-.017.046-.027.068-.058.129-.108.262-.158.395-.023.065-.049.128-.07.192a5.51 5.51 0 00-.117.418c-.017.065-.037.13-.052.197a6.11 6.11 0 00-.075.453c-.009.062-.021.122-.028.185a6.104 6.104 0 006.069 6.757 6.104 6.104 0 006.069-6.757c-.007-.063-.02-.123-.028-.185a6.11 6.11 0 00-.075-.453c-.015-.066-.034-.132-.052-.197a4.87 4.87 0 00-.117-.418c-.021-.064-.047-.127-.07-.192a6.132 6.132 0 00-.158-.395c-.01-.022-.017-.046-.027-.068h-.006a6.1 6.1 0 00-5.536-3.545zm12.209-4.529c0-.87-.705-1.574-1.575-1.574h-3.151c-.87 0-1.575.704-1.575 1.574v3.152c0 .87.705 1.575 1.575 1.575h3.151c.87 0 1.575-.705 1.575-1.575V5.365zm0 8.074h-2.905c.224.816.345 1.675.345 2.561 0 5.329-4.32 9.648-9.649 9.648S6.474 21.329 6.474 16c0-.886.121-1.745.345-2.561H3.914v13.194c0 .871.705 1.577 1.575 1.577h21.268c.87 0 1.575-.705 1.575-1.577V13.439z"/></symbol></defs></svg>